<?xml version="1.0" encoding="utf-8"?>
<!-- Generator: Adobe Illustrator 17.0.0, SVG Export Plug-In . SVG Version: 6.00 Build 0)  -->
<!DOCTYPE svg PUBLIC "-//W3C//DTD SVG 1.1//EN" "http://www.w3.org/Graphics/SVG/1.1/DTD/svg11.dtd" [
	<!ENTITY st0 "fill:none;stroke:#898989;stroke-width:8.6428;stroke-miterlimit:10;">
	<!ENTITY st1 "fill:none;stroke:#898989;stroke-width:8.4077;stroke-miterlimit:10;">
	<!ENTITY st2 "fill:none;stroke:#898989;stroke-width:6.565;stroke-miterlimit:10;">
	<!ENTITY st3 "fill:#4DFFFF;">
	<!ENTITY st4 "fill:#FFE100;">
	<!ENTITY st5 "fill:#717071;">
]>
<svg version="1.1" id="圖層_1" xmlns="http://www.w3.org/2000/svg" xmlns:xlink="http://www.w3.org/1999/xlink" x="0px" y="0px"
	 width="406.287px" height="128px" viewBox="0 0 406.287 128" style="enable-background:new 0 0 406.287 128;" xml:space="preserve"
	>
<g>
	<path style="&st0;" d="M-194.883-93.716c1.941,0,3.516-1.543,3.516-3.448v-110.785c0-1.904-1.575-3.446-3.516-3.446"/>
	<path style="&st0;" d="M-254.451-93.716h-21.881c-1.941,0-3.516-1.543-3.516-3.446v-110.785c0-1.905,1.573-3.448,3.516-3.448
		h21.881h74.96c1.941,0,3.516,1.543,3.516,3.446v110.785c0,1.905-1.575,3.448-3.516,3.448h-74.958"/>
	<path style="&st0;" d="M-220.149-198.888h-43.884c-1.033,0-1.872,0.821-1.872,1.837l-0.008,15.603h60.916
		c1.212-0.452,1.235-0.906,1.235-1.369c0-8.242-6.324-15.028-14.474-15.959L-220.149-198.888z"/>
</g>
<g>
	<path style="&st1;" d="M-224.194,20.384l-94.226-0.278l-15.616-55.164l95.723,47.885c0,0,11.72,3.043,12.512,7.069l0.151,0.682
		c-0.674,4.168-12.652,7.362-12.652,7.362l-95.733,47.607l15.616-55.164h77.455"/>
	<path style="&st1;" d="M-324.95,44.345"/>
	<polyline style="&st1;" points="-322.169,33.579 -335.504,20.245 -322.169,6.91 	"/>
</g>
<g>
	<ellipse style="&st2;" cx="-78.093" cy="-142.496" rx="60.237" ry="59.073"/>
	<ellipse style="&st2;" cx="-78.093" cy="-142.496" rx="52.923" ry="51.9"/>
	<polyline style="&st2;" points="-76.801,-171.61 -76.801,-142.496 -42.165,-142.496 	"/>
</g>
<g>
	<g>
		<g>
			<g>
				<path style="&st3;" d="M114.307,106.23h-92.33V94.748c0,0,59.762,0,82.583,0C115.252,94.748,114.307,106.23,114.307,106.23z"/>
			</g>
		</g>
		<g>
			<g>
				<rect x="26.878" y="70.419" style="&st3;" width="82.529" height="11.482"/>
			</g>
		</g>
		<g>
			<g>
				<rect x="26.878" y="46.093" style="&st3;" width="82.529" height="11.481"/>
			</g>
		</g>
		<g>
			<g>
				<path style="&st4;" d="M111.857,33.252c0,0-57.864,0-78.817,0c-9.05,0-8.613-11.482-8.613-11.482h87.43V33.252z"/>
			</g>
		</g>
		<g>
			<g>
				<polygon style="&st4;" points="111.857,33.252 26.878,57.578 26.878,46.093 111.857,21.77 				"/>
			</g>
		</g>
		<g>
			<g>
				<polygon style="&st4;" points="109.406,57.578 26.878,81.904 26.878,70.419 109.406,46.093 				"/>
			</g>
		</g>
		<g>
			<g>
				<polygon style="&st4;" points="109.406,81.904 21.977,106.23 21.977,94.745 109.406,70.419 				"/>
			</g>
		</g>
	</g>
</g>
<g>
	<g>
		<path style="&st5;" d="M156.241,96.184h-7.47V38.103h18.061c13.489,0,18.729,7.357,18.729,15.83
			c0,12.263-8.695,17.279-16.834,17.279h-12.485V96.184z M166.497,64.524c7.357,0,11.26-3.345,11.26-10.033
			c0-7.915-5.128-9.699-11.26-9.699h-10.256v19.732H166.497z"/>
		<path style="&st5;" d="M204.068,80.354l-5.463,17.279l-7.357-2.675l18.282-56.855h9.588L237.4,94.958l-7.357,2.675l-5.352-17.279
			H204.068z M214.323,46.798l-8.25,26.867h16.499L214.323,46.798z"/>
		<path style="&st5;" d="M256.576,96.184h-7.47V38.103h18.061c13.489,0,18.729,7.357,18.729,15.83
			c0,12.263-8.695,17.279-16.834,17.279h-12.485V96.184z M266.832,64.524c7.357,0,11.26-3.345,11.26-10.033
			c0-7.915-5.128-9.699-11.26-9.699h-10.256v19.732H266.832z"/>
		<path style="&st5;" d="M298.717,38.103h36.23v6.688h-28.762v17.392h23.745v6.688h-23.745v20.624h28.762v6.688h-36.23V38.103z"/>
		<path style="&st5;" d="M347.992,38.103h19.732c9.699,0,17.391,4.57,17.391,15.83c0,7.135-4.793,14.158-11.816,16.276l14.27,23.522
			l-6.466,3.901l-14.827-26.31h-10.813v24.86h-7.47V38.103z M365.273,64.635c7.246,0,12.039-4.125,12.039-10.702
			c0-5.239-3.121-9.142-9.81-9.142h-12.04v19.844H365.273z"/>
	</g>
</g>
</svg>
